# xmcd
#
# Track frame offsets: 
#        150
#        17587
#        35350
#        56950
#        75895
#        91725
#        109907
#        126597
#        143182
#        164032
#        184725
#        205090
#        227897
#
# Disc length: 3276 seconds
#
# Revision: 1
# Processed by: cddbd v1.5.2PL0 Copyright (c) Steve Scherf et al.
# Submitted via: ExactAudioCopy v1.0b1
#
DISCID=af0cca0d
DTITLE=Otis Clay - This Time Around
DYEAR=1998
DGENRE=Soul
TTITLE0=You're The One I Choose
TTITLE1=When Hearts Grow Cold
TTITLE2=You Never Miss Your Water
TTITLE3=Somebody Help
TTITLE4=You Want Me To Do (What You Won't Do)
TTITLE5=Help Me Get Over You
TTITLE6=Don't You Know Baby
TTITLE7=That's How It Is (When You're In Love)
TTITLE8=This Time Around
TTITLE9=It's Hard To Love (After A Heartbreak)
TTITLE10=Standing In The Rain
TTITLE11=City In The Sky
TTITLE12=I Can Handle It
EXTD=
EXTT0=
EXTT1=
EXTT2=
EXTT3=
EXTT4=
EXTT5=
EXTT6=
EXTT7=
EXTT8=
EXTT9=
EXTT10=
EXTT11=
EXTT12=
PLAYORDER=
